<svg aria-hidden="true" style="position:absolute;width:0;height:0" xmlns="http://www.w3.org/2000/svg" overflow="hidden"><defs><symbol id="facebook" viewBox="0 0 20 20"><path  d="M13.331 3.321h1.826V.141A23.64 23.64 0 0012.497 0C9.864 0 8.061 1.656 8.061 4.699V7.5H5.156v3.555h2.905V20h3.562v-8.944h2.788l.442-3.555h-3.231V5.052c.001-1.027.277-1.731 1.709-1.731z"/></symbol><symbol id="instagram" viewBox="0 0 20 20"><path  d="M19.98 5.88c-.047-1.063-.219-1.793-.465-2.426a4.88 4.88 0 00-1.157-1.774 4.923 4.923 0 00-1.77-1.153c-.637-.246-1.363-.418-2.426-.465-1.071-.051-1.411-.063-4.126-.063S6.981.011 5.914.058C4.851.105 4.121.277 3.488.523A4.88 4.88 0 001.714 1.68 4.936 4.936 0 00.561 3.45C.315 4.087.143 4.813.096 5.876.045 6.947.033 7.286.033 10.002s.012 3.055.059 4.122c.047 1.063.219 1.793.465 2.426a4.93 4.93 0 001.156 1.774c.5.508 1.106.903 1.77 1.153.637.246 1.363.418 2.426.465 1.066.047 1.407.059 4.122.059s3.055-.012 4.122-.059c1.063-.047 1.793-.219 2.426-.465a5.118 5.118 0 002.927-2.926c.246-.637.418-1.364.465-2.426.047-1.067.059-1.407.059-4.122s-.004-3.055-.051-4.122zm-1.801 8.166c-.043.977-.207 1.504-.344 1.856a3.32 3.32 0 01-1.899 1.899c-.352.137-.883.301-1.856.344-1.055.047-1.371.059-4.04.059s-2.989-.012-4.04-.059c-.977-.043-1.504-.207-1.856-.344a3.078 3.078 0 01-1.149-.746 3.102 3.102 0 01-.746-1.149c-.137-.352-.301-.883-.344-1.856-.047-1.055-.059-1.371-.059-4.04s.012-2.989.059-4.04c.043-.977.207-1.504.344-1.856a3.04 3.04 0 01.75-1.149 3.102 3.102 0 011.149-.746c.352-.137.883-.301 1.856-.344 1.055-.047 1.371-.059 4.04-.059 2.672 0 2.989.012 4.04.059.977.043 1.504.207 1.856.344.434.16.828.414 1.149.746.332.324.586.715.746 1.149.137.352.301.883.344 1.856.047 1.055.059 1.371.059 4.04s-.012 2.981-.059 4.036z"/><path  d="M10.037 4.864a5.139 5.139 0 10.002 10.274 5.139 5.139 0 00-.002-10.274zm0 8.471a3.333 3.333 0 110-6.667 3.333 3.333 0 010 6.667zM16.578 4.661a1.2 1.2 0 11-2.398 0 1.2 1.2 0 012.398 0z"/></symbol><symbol id="linkedin" viewBox="0 0 20 20"><path  d="M19.995 20v-.001H20v-7.335c0-3.588-.773-6.352-4.968-6.352-2.017 0-3.37 1.107-3.922 2.156h-.058V6.647H7.074v13.352h4.142v-6.612c0-1.741.33-3.424 2.486-3.424 2.124 0 2.156 1.987 2.156 3.536V20h4.138zM.33 6.647h4.147V20H.33V6.647zM2.402 0C1.076 0 0 1.076 0 2.402s1.076 2.424 2.402 2.424 2.402-1.098 2.402-2.424S3.727 0 2.402 0z"/></symbol><symbol id="twitter" viewBox="0 0 20 20"><path  d="M20 3.799a8.557 8.557 0 01-2.363.648 4.08 4.08 0 001.804-2.266 8.19 8.19 0 01-2.6.992 4.099 4.099 0 00-7.092 2.803c0 .325.027.638.095.935-3.409-.166-6.425-1.8-8.451-4.289a4.104 4.104 0 001.26 5.48A4.049 4.049 0 01.8 7.597v.045a4.12 4.12 0 003.285 4.029 4.107 4.107 0 01-1.075.135c-.263 0-.527-.015-.776-.07.531 1.624 2.039 2.818 3.831 2.856a8.24 8.24 0 01-5.084 1.749A7.72 7.72 0 010 16.285a11.545 11.545 0 006.29 1.84c7.545 0 11.67-6.25 11.67-11.667 0-.181-.006-.356-.015-.53A8.16 8.16 0 0020 3.799z"/></symbol></defs></svg>